<?xml version="1.0" encoding="UTF-8"?>
<svg id="Ebene_1" data-name="Ebene 1" xmlns="http://www.w3.org/2000/svg" viewBox="0 0 155.76 166.44">
  <g>
    <polygon points="0 0 63.88 35.7 86.43 80.96 69.51 106.24 0 131.94 72.2 79.08 55.44 38.68 0 0" fill="#bc191a"/>
    <polygon points="8.74 40.97 42.83 46.56 31.37 54.01 8.74 40.97" fill="#bc191a"/>
    <polygon points="82.28 103.54 93.49 86.92 127.11 93.79 82.28 103.54" fill="#bc191a"/>
    <path d="M136.24,125.06c4.15-14.93,3.88-19.17,3.94-24.17.11-9.35-6.02-13.97-10.49-15.44-2.11-.69-8.42-2.18-8.42-2.18l-26.09-5.28-19.29-38.78,49.23,19.34s6.03,2.08,11.33,4.66,9.88,6.12,13.68,11.42c2.64,3.68,6.02,11.17,5.59,18.62-.43,7.45-3.38,14.79-7.34,20.23-3.44,4.73-5.22,6.15-7.63,8.38-3.43,3.18-4.51,3.19-4.51,3.19Z" fill="#bc191a"/>
  </g>
  <g>
    <polygon points="111.67 143.63 117.67 143.63 120.83 150.01 122.79 143.63 128.6 143.63 121.71 166.37 115.71 166.37 118.55 157.4 111.67 143.63" fill="#bc191a"/>
    <polygon points="103.14 143.63 103.14 161.26 112.17 161.26 110.78 166.37 97.01 166.37 97.01 155 100.17 143.63 103.14 143.63" fill="#bc191a"/>
    <polygon points="78.43 143.63 78.43 166.37 84.62 166.37 84.62 157.47 90.75 157.47 92.27 152.28 84.56 152.28 84.53 148.81 93.15 148.81 94.67 143.63 78.43 143.63" fill="#bc191a"/>
    <polygon points="73.5 143.63 60.61 143.63 60.61 166.37 73.5 166.37 73.5 164.57 62.54 164.57 62.57 157.34 71.61 157.34 71.58 155.29 62.51 155.25 62.48 145.27 73.5 145.27 73.5 143.63" fill="#bc191a"/>
    <polygon points="40.05 143.63 55.84 143.63 55.84 145.24 48.99 145.24 49.02 166.37 47.09 166.37 47.09 145.24 40.05 145.24 40.05 143.63" fill="#bc191a"/>
    <path d="M21.46,166.37v-1.67h7.33s3.89.25,3.98-2.27c.11-3.03.32-4.11-2.65-4.77s-3.94-.81-4.96-1.07c-.81-.21-3.89-.95-3.89-4.23,0-2.5,0-3.48,0-3.48,0,0-.32-5.24,4.74-5.24,5.05,0,8.43,0,8.43,0l.08,1.74h-8.51s-3.06-.25-3.16,3.6-.22,5.37,2.56,6.03c2.05.49,2.94.66,5.09,1.14,1.49.33,3.9.92,3.95,4.01.06,4.42-.35,6.22-5.43,6.22-4.74,0-7.55,0-7.55,0Z" fill="#bc191a"/>
    <text transform="translate(131.67 143.7)" fill="#bc191a" font-family="Arial-BoldMT, Arial" font-size="9.54" font-weight="700"><tspan x="0" y="0">TM</tspan></text>
  </g>
</svg>