<?xml version="1.0" encoding="UTF-8"?>
<svg id="Ebene_1" data-name="Ebene 1" xmlns="http://www.w3.org/2000/svg" viewBox="0 0 466.69 131.94">
  <g>
    <polygon points="0 0 63.88 35.7 86.43 80.96 69.51 106.24 0 131.94 72.2 79.08 55.44 38.68 0 0" fill="#bc1a1c"/>
    <polygon points="8.74 40.97 42.83 46.56 31.37 54.01 8.74 40.97" fill="#bc1a1c"/>
    <polygon points="82.28 103.54 93.49 86.92 127.11 93.79 82.28 103.54" fill="#bc1a1c"/>
    <path d="M136.24,125.06c4.15-14.93,3.88-19.17,3.94-24.17.11-9.35-6.02-13.97-10.49-15.44-2.11-.69-8.42-2.18-8.42-2.18l-26.09-5.28-19.29-38.78,49.23,19.34s6.03,2.08,11.33,4.66,9.88,6.12,13.68,11.42c2.64,3.68,6.02,11.17,5.59,18.62-.43,7.45-3.38,14.79-7.34,20.23-3.44,4.73-5.22,6.15-7.63,8.38-3.43,3.18-4.51,3.19-4.51,3.19Z" fill="#bc1a1c"/>
  </g>
  <g>
    <polygon points="389.58 54.46 403.29 54.46 410.5 69.03 414.97 54.46 428.24 54.46 412.52 106.39 398.81 106.39 405.3 85.91 389.58 54.46" fill="#bc191a"/>
    <polygon points="370.11 54.46 370.11 94.7 390.74 94.7 387.56 106.39 356.12 106.39 356.12 80.43 363.33 54.46 370.11 54.46" fill="#bc191a"/>
    <polygon points="313.72 54.46 313.72 106.39 327.85 106.39 327.85 86.05 341.84 86.05 345.3 74.22 327.71 74.22 327.63 66.29 347.32 66.29 350.78 54.46 313.72 54.46" fill="#bc191a"/>
    <polygon points="302.47 54.46 273.04 54.46 273.04 106.39 302.47 106.39 302.47 102.28 277.44 102.28 277.51 85.76 298.14 85.76 298.07 81.07 277.37 81 277.3 58.21 302.47 58.21 302.47 54.46" fill="#bc191a"/>
    <polygon points="226.09 54.46 262.15 54.46 262.15 58.14 246.5 58.14 246.58 106.39 242.18 106.39 242.18 58.14 226.09 58.14 226.09 54.46" fill="#bc191a"/>
    <path d="M183.68,106.39v-3.82h16.73s8.87.58,9.09-5.19c.26-6.92.72-9.38-6.06-10.89-6.78-1.51-8.99-1.84-11.32-2.45-1.85-.48-8.88-2.16-8.88-9.66,0-5.7,0-7.93,0-7.93,0,0-.72-11.97,10.82-11.97,11.54,0,19.23,0,19.23,0l.19,3.97h-19.42s-7-.58-7.21,8.22c-.22,8.8-.5,12.26,5.84,13.77,4.69,1.12,6.71,1.52,11.61,2.6,3.41.75,8.91,2.09,9.01,9.16.14,10.1-.79,14.21-12.4,14.21-10.82,0-17.23,0-17.23,0Z" fill="#bc191a"/>
    <text transform="translate(435.25 54.63)" fill="#bc191a" font-family="Arial-BoldMT, Arial" font-size="21.78" font-weight="700"><tspan x="0" y="0">TM</tspan></text>
  </g>
  <text transform="translate(182.4 42.88)" fill="#1d1d1b" font-family="Lato-Light, Lato" font-size="21" font-weight="300"><tspan x="0" y="0">P</tspan><tspan x="12.14" y="0" letter-spacing="0em">O</tspan><tspan x="28.65" y="0">WERED </tspan><tspan x="108.78" y="0" letter-spacing="-.02em">B</tspan><tspan x="121.61" y="0" letter-spacing="-.04em">Y</tspan></text>
</svg>