<?xml version="1.0" encoding="UTF-8"?>
<svg id="Ebene_1" data-name="Ebene 1" xmlns="http://www.w3.org/2000/svg" viewBox="0 0 155.76 131.94">
  <polygon points="0 0 63.88 35.7 86.43 80.96 69.51 106.24 0 131.94 72.2 79.08 55.44 38.68 0 0" fill="#bc191a"/>
  <polygon points="8.74 40.97 42.83 46.56 31.37 54.01 8.74 40.97" fill="#bc191a"/>
  <polygon points="82.28 103.54 93.49 86.92 127.11 93.79 82.28 103.54" fill="#bc191a"/>
  <path d="M136.24,125.06c4.15-14.93,3.88-19.17,3.94-24.17.11-9.35-6.02-13.97-10.49-15.44-2.11-.69-8.42-2.18-8.42-2.18l-26.09-5.28-19.29-38.78,49.23,19.34s6.03,2.08,11.33,4.66,9.88,6.12,13.68,11.42c2.64,3.68,6.02,11.17,5.59,18.62-.43,7.45-3.38,14.79-7.34,20.23-3.44,4.73-5.22,6.15-7.63,8.38-3.43,3.18-4.51,3.19-4.51,3.19Z" fill="#bc191a"/>
</svg>